<svg width="96" height="96" viewBox="0 0 96 96" fill="none" xmlns="http://www.w3.org/2000/svg">
<rect width="96" height="96" fill="#151515"/>
<path d="M19.8619 79.0818C18.8572 79.422 17.5699 79.7931 16 80.1952L16 84.0224H42.7981V80.1952L33.9439 77.7828C33.9439 64.2886 33.3082 52.7915 35.4717 52.7915C37.6352 52.7915 41.9978 53.9846 52.1704 69.9427C53.2379 71.5509 54.2583 73.1128 55.2317 74.6282C56.2364 76.1127 57.2882 77.4736 58.3872 78.7107C59.5175 79.9478 60.742 80.9993 62.0607 81.8653C63.4108 82.7312 64.9336 83.3189 66.6291 83.6281C67.6652 83.8446 68.7328 83.9838 69.8317 84.0457C70.8969 84.0224 72.4477 84.0224 73.068 84.0224H76.7898H80.5116L80.5227 81.8653C79.1098 81.4323 77.6184 80.7209 76.0485 79.7313C74.51 78.7416 72.9558 77.5663 71.3859 76.2055C69.816 74.8447 68.2304 73.3293 66.6291 71.6592C65.0278 69.9582 63.4736 68.1798 61.9665 66.3242C60.899 65.0252 59.8943 63.6953 58.9523 62.3345C58.0418 60.9428 57.2097 59.582 56.4562 58.2521C55.7026 56.9222 55.0276 55.6697 54.431 54.4944C53.8659 53.3192 53.3949 52.2985 53.0181 51.4326C55.373 50.9377 57.5551 49.979 59.5646 48.5563C61.5741 47.1027 63.3166 45.3708 64.7923 43.3605C66.2994 41.3502 67.4769 39.1544 68.3246 36.7729C69.1723 34.3915 69.5962 32.0101 69.5962 29.6287C69.5962 26.6596 69.0938 24.0772 68.0891 21.8813C67.0844 19.6546 65.6872 17.8144 63.8975 16.3608C62.1392 14.9072 60.0199 13.8247 57.5394 13.1134C55.0904 12.3711 52.4059 12 49.4859 12C47.445 12 45.671 12.0309 44.1639 12.0928C42.6882 12.1237 41.3695 12.1701 40.2078 12.232C39.0461 12.2938 38.0099 12.3711 37.0994 12.4639C36.2203 12.5567 35.3568 12.634 34.5091 12.6959C33.6613 12.7577 32.7979 12.8196 31.9187 12.8814C31.0396 12.9124 30.0663 12.9278 28.9987 12.9278H16V16.6855L23.771 19.1443V70.9169C23.771 72.6798 23.6611 74.087 23.4413 75.1385C23.2215 76.1591 22.8134 76.9787 22.2168 77.5973C21.6516 78.2158 20.8667 78.7107 19.8619 79.0818Z" fill="#EBBB0D"/>
</svg>
